<svg width="1198" height="228" viewBox="0 0 1198 228" fill="none" xmlns="http://www.w3.org/2000/svg">
<path fill-rule="evenodd" clip-rule="evenodd" d="M482.649 0.814247C480.798 1.76866 478.063 6.68723 471.901 20.1423C463.348 38.819 438.832 95.7162 433.638 108.942L430.682 116.469L425.298 117.123C422.336 117.482 416.446 117.821 412.208 117.875C406.645 117.948 404.066 118.413 402.927 119.551C401.004 121.475 400.976 121.141 403.669 128.512L405.869 134.534L414.739 134.825C422.64 135.085 423.534 135.304 422.929 136.832C422.555 137.776 419.533 145.774 416.212 154.606C403.011 189.715 396.334 208.598 396.334 210.823C396.334 213.525 402.205 218.992 409.879 223.437C415.921 226.937 418.878 227.117 420.824 224.104C421.627 222.861 429.135 204.684 437.509 183.709C445.883 162.735 453.27 144.546 453.924 143.29L455.113 141.008L461.537 144.218C470.045 148.471 479.068 157.609 483.942 166.91C488.798 176.174 492.491 190.695 493.294 203.677C494.004 215.147 494.289 215.668 503.249 221.84C509.3 226.008 513.03 226.575 515.665 223.727C516.623 222.693 521.169 212.588 525.767 201.272C530.365 189.957 538.982 169.408 544.917 155.609L555.707 130.52L564.568 129.873C569.442 129.518 577.691 129.179 582.899 129.12L592.368 129.014L584.686 136.55C567.573 153.337 558.126 173.683 559.077 191.707C560.056 210.268 570.819 221.636 589.987 224.355C614.965 227.898 643.907 211.753 660.602 184.96C664.853 178.139 670.181 165.167 671.695 157.956C672.133 155.869 673.958 154.368 680.035 151.09C690.552 145.419 699.73 139.198 706.416 133.207L711.974 128.227L715.05 131.892L718.127 135.557L709.724 145.583C682.692 177.838 673.687 203.932 684.963 217.335C688.478 221.512 692.199 223.264 699.098 223.984C715.395 225.688 733.557 216.404 752.466 196.705C758.071 190.865 760.638 188.751 760.183 190.348C758.752 195.375 758.358 205.922 759.45 209.945C762.028 219.443 773.031 224.613 785.825 222.336C797.819 220.204 807.3 214.664 818.534 203.225L825.508 196.125L826.699 200.857C831.031 218.063 845.363 226.611 867.286 225.064C892.403 223.291 918.125 203.986 931.972 176.516C933.689 173.112 935.843 167.625 936.76 164.325L938.429 158.325L946.682 155.639C951.221 154.162 957.504 151.406 960.644 149.514C963.783 147.623 966.507 146.075 966.698 146.075C966.889 146.075 964.893 151.156 962.265 157.365C956.612 170.719 948.934 192.518 946.182 203.028C944.774 208.404 944.504 211.048 945.227 212.397C946.758 215.258 957.878 222.418 961.774 223.05C965.921 223.723 966.549 223.128 985.786 200.332C998.237 185.576 1024.35 157.691 1025.06 158.397C1025.25 158.583 1023.21 164.129 1020.53 170.72C1008.21 201.091 1008.62 216.902 1021.9 223.331C1025.78 225.211 1027.81 225.507 1034.81 225.21C1041.98 224.905 1044.15 224.345 1050.69 221.112C1060.67 216.18 1067.65 209.099 1086.72 184.567C1095.07 173.831 1103.61 163.065 1105.71 160.64L1109.52 156.231L1110.18 160.938C1111.13 167.7 1113.49 174.593 1117.81 183.245C1123 193.645 1124.13 198.245 1122.76 203.333C1121.38 208.468 1118.95 210.912 1113.84 212.288C1106.37 214.299 1099.55 209.385 1098.16 200.992C1096.59 191.499 1093.3 190.73 1086.29 198.218C1082.25 202.541 1081.64 203.759 1081.64 207.501C1081.65 212.849 1084.27 217.317 1089.71 221.259C1095.3 225.312 1102.28 226.684 1114.83 226.194C1123.59 225.852 1126.26 225.337 1131.31 223.011C1141.51 218.309 1147.5 211.058 1150.51 199.767C1153.39 188.995 1151.77 180.24 1143.94 164.219C1141.16 158.533 1138.59 152.33 1138.24 150.436C1137.11 144.453 1140.11 138.836 1148.45 131.277C1152.86 127.287 1155.89 123.743 1155.89 122.582C1155.89 119.687 1147.17 111.953 1143.91 111.953C1135.6 111.953 1110.01 136.72 1080.69 173.13C1071.91 184.037 1062.45 195.301 1059.66 198.161C1053.86 204.121 1048.48 206.871 1045.62 205.34C1039.94 202.3 1044.17 186.695 1059.21 155.205C1063.27 146.702 1066.59 138.721 1066.59 137.469C1066.59 134.693 1060.54 129.292 1053.02 125.355C1047.84 122.643 1047.56 122.605 1044.28 124.169C1038.55 126.902 1008.56 156.33 990.012 177.418C985.773 182.237 982.305 185.79 982.305 185.312C982.305 183.548 990.705 164.213 997.437 150.481C1001.26 142.692 1004.38 135.4 1004.38 134.276C1004.38 130.966 991.164 120.5 985.572 119.381C983.121 118.891 981.493 119.85 973.897 126.263C963.883 134.719 956.861 139.226 948.471 142.585C938.98 146.385 939.048 146.403 937.482 139.606C934.888 128.344 928.162 120.706 917.277 116.663C908.666 113.465 893.11 113.73 883.137 117.246C866.166 123.228 852.072 135.536 837.65 156.972C818.019 186.148 808.682 197.162 800.027 201.352C796.276 203.168 795.1 203.339 792.974 202.37C790.584 201.28 790.453 200.848 790.889 195.469C791.546 187.382 807.868 147.181 826.059 108.852L832.531 95.2144L848.47 94.5812C857.237 94.2329 880.663 93.4431 900.53 92.8249C920.397 92.2077 937.668 91.3004 938.909 90.8097C940.151 90.3189 941.163 89.1176 941.157 88.1391C941.14 85.0511 936.406 76.0319 934.176 74.8376C931.902 73.6203 901.23 74.6309 861.107 77.2452C850.23 77.9537 841.149 78.3813 840.927 78.1966C840.704 78.011 842.849 72.8977 845.693 66.833C848.536 60.7694 850.863 54.9717 850.863 53.948C850.863 51.4902 847.873 48.895 839.15 43.7787C830.36 38.6233 826.471 38.5129 823.24 43.3271C822.084 45.0482 817.606 54.0805 813.289 63.3988C808.97 72.717 805.327 80.4748 805.192 80.6383C805.058 80.8029 797.853 81.5215 789.182 82.2371C770.074 83.8117 769.792 84.0355 774.451 93.8887L776.112 97.4012H786.466C796.31 97.4012 796.798 97.5006 796.35 99.4084C795.329 103.745 775.75 147.312 772.357 152.797C757.075 177.499 730.881 203.475 719.749 204.968C711.494 206.075 710.366 199.757 716.276 185.501C721.335 173.298 727.587 164.374 745.735 143.453C757.855 129.48 757.682 126.421 744.632 124.089C731.536 121.747 727.003 116.016 729.332 104.737C730.711 98.0636 730.13 96.5351 725.805 95.4492C722.63 94.6524 721.185 95.8065 716.827 102.62C709.515 114.053 691.448 130.567 678.157 137.965L672.513 141.107L671.318 136.315C668.749 126.012 661.265 117.549 651.802 114.245C647.257 112.658 643.209 112.479 616.073 112.671C599.241 112.789 580.557 113.17 574.551 113.517L563.634 114.147L564.246 111.705C564.929 108.982 583.827 67.3961 594.871 44.3106C598.806 36.0852 602.026 28.0746 602.026 26.509C602.026 23.3126 599.605 21.469 587.198 15.2197C579.192 11.1873 576.006 10.7467 573.669 13.351C571.899 15.3241 552.359 58.8455 538.184 92.3833L528.853 114.462L503.982 115.217C490.304 115.632 476.07 115.858 472.352 115.719L465.593 115.466L476.437 91.8815C482.402 78.9102 492.555 57.2187 499 43.6794C505.446 30.139 510.719 18.0588 510.719 16.8335C510.719 13.8177 508.523 11.8246 498.592 5.82415C488.799 -0.0919847 486.069 -0.950054 482.649 0.814247ZM199.672 11.672C155.543 13.1684 85.5669 17.5932 33.1315 22.2016C2.76732 24.8702 0 25.5325 0 30.1269C0 34.0831 4.98176 46.3378 7.58452 48.7826L9.99463 51.0477L47.8911 47.3173C68.7353 45.266 87.5145 43.3261 89.6236 43.0069L93.4575 42.4259L91.9695 45.828C91.1507 47.6987 83.6294 63.455 75.2562 80.8421C66.8821 98.2292 53.7017 126.681 45.9667 144.068C38.2306 161.455 28.5621 182.949 24.4794 191.831C17.0052 208.097 16.0932 211.463 18.3548 214.434C19.8628 216.414 32.0107 223.953 37.9648 226.604C41.593 228.218 42.79 228.344 45.165 227.359C48.4902 225.982 46.7664 229.666 85.3121 141.559C99.8008 108.441 115.769 72.0858 120.795 60.7704L129.937 40.1969L137.964 39.5315C145.538 38.9033 202.212 35.4118 226.261 34.0911C237.62 33.4679 241.814 32.092 241.814 28.9889C241.814 28.0937 240.225 24.0583 238.285 20.0219C235.131 13.4634 234.357 12.5723 231.01 11.6429C228.95 11.0709 226.136 10.6704 224.756 10.7547C223.377 10.838 212.089 11.2515 199.672 11.672ZM161.228 59.7307C153.273 62.2677 147.274 70.9357 147.342 79.7903C147.421 90.0189 154.381 96.8994 164.651 96.8994C175.841 96.8994 184.908 87.6845 184.908 76.3119C184.908 66.6283 178.55 59.6504 169.248 59.1235C166.39 58.9619 162.781 59.2349 161.228 59.7307ZM134.996 110.197C132.039 112.786 117.436 143.474 109.089 164.641C97.188 194.819 95.6238 208.561 103.082 217.427C108.564 223.943 119.219 226.089 130.081 222.863C141.497 219.471 157.362 205.776 172.526 186.218C176.591 180.975 179.654 177.588 179.33 178.692C179.007 179.795 176.68 186.57 174.158 193.745C169.407 207.264 168.687 211.768 170.825 214.582C173.061 217.525 183.883 223.351 187.113 223.351C190.643 223.351 192.481 221.605 207.705 203.781C225.213 183.285 253.37 153.1 254.98 153.1C255.437 153.1 254.406 156.825 252.688 161.38C243.297 186.289 237.794 203.916 238.044 208.297C238.295 212.683 238.505 212.95 245.326 217.531C256.974 225.356 258.773 224.881 270.106 210.975C288.448 188.468 316.41 157.891 314.769 162.132C314.449 162.96 312.559 167.702 310.567 172.67C298.556 202.641 298.508 218.667 310.413 225.491C316.057 228.726 328.412 228.855 335.128 225.749C344.407 221.457 349.325 214.01 343.656 212.833C342.277 212.546 340.031 212.081 338.668 211.798C335.056 211.049 332.118 207.424 332.118 203.718C332.118 196.77 342.096 170.919 352.34 151.329C355.014 146.216 357.202 141.182 357.202 140.143C357.202 136.268 342.86 126.003 337.447 126.003C334.777 126.003 332.634 127.339 326.354 132.918C317.804 140.515 296.329 162.277 282.667 177.186L273.932 186.72L276.341 180.197C279.969 170.378 282.153 165.005 288.867 149.393C292.236 141.558 294.993 134.29 294.993 133.24C294.993 130.858 292.683 128.748 284.708 123.841C273.486 116.937 276.067 115.328 239.897 151.778C222.545 169.267 208.615 182.929 208.943 182.137C210.559 178.241 227.816 138.971 229.641 135.036C232.412 129.062 232.373 124.89 229.522 122.275C226.043 119.082 216.293 113.137 213.306 112.388C209.543 111.443 207.901 113.225 198.473 128.48C165.989 181.042 140.03 209.718 132.109 201.795C127.725 197.41 131.969 184.571 151.618 142.78C155.973 133.516 159.537 124.801 159.537 123.413C159.537 120.291 156.089 116.997 147.438 111.852C139.805 107.314 138.489 107.138 134.996 110.197ZM628.803 129.811C626.504 132.351 624.096 139.623 624.122 143.943C624.171 152.071 630.712 160.471 637.926 161.669C644.447 162.752 644.348 162.602 642.166 168.142C632.425 192.86 615.837 209.803 601.379 209.803C592.608 209.803 588.029 203.267 588.016 190.735C588.006 180.976 590.263 172.358 595.903 160.627C604.313 143.138 613.903 132.467 624.409 128.91C630.211 126.945 631.21 127.15 628.803 129.811ZM893.37 134.703C890.6 140.178 890.183 148.614 892.467 153.031C894.644 157.242 899.679 161.05 903.981 161.737C910.172 162.728 910.628 163.312 909.127 168.326C906.001 178.776 897.181 193.028 889.262 200.426C869.048 219.313 850.618 210.863 854.703 184.584C857.687 165.387 872.985 141.234 887.395 132.967C895.044 128.579 896.287 128.94 893.37 134.703ZM521.756 131.798C521.756 132.748 504.908 176.307 504.309 176.907C504.073 177.142 503.121 174.704 502.193 171.49C498.041 157.111 486.755 142.503 475.087 136.406C472.06 134.824 469.584 133.201 469.582 132.8C469.581 132.397 478.272 131.936 488.895 131.773C499.518 131.61 511.258 131.375 514.983 131.249C518.707 131.124 521.756 131.371 521.756 131.798ZM1175.96 189.257C1168.09 190.638 1161.99 196.418 1160.43 203.948C1158.98 211.033 1164.57 221.047 1171.64 224.002C1180.61 227.747 1192.2 223.625 1196.62 215.122C1198.67 211.179 1198.39 202.907 1196.06 198.323C1192.72 191.779 1184 187.845 1175.96 189.257ZM1185.37 193.632C1192.71 196.698 1195.85 205.895 1192.16 213.519C1185.13 228.031 1163.81 222.051 1165.22 205.965C1166.13 195.54 1175.79 189.628 1185.37 193.632ZM1171.94 207.248C1171.94 215.657 1172.09 216.326 1173.95 216.326C1175.57 216.326 1175.96 215.657 1175.96 212.813C1175.96 209.717 1176.26 209.301 1178.52 209.301C1180.49 209.301 1181.41 210.101 1182.54 212.813C1183.53 215.173 1184.67 216.326 1186.02 216.326C1187.71 216.326 1187.93 215.877 1187.38 213.566C1187.02 212.049 1186.14 210.129 1185.44 209.301C1184.37 208.056 1184.48 207.38 1186.1 205.393C1187.82 203.278 1187.88 202.738 1186.65 200.877C1185.51 199.143 1184.06 198.71 1178.6 198.466L1171.94 198.17V207.248ZM1181.45 201.628C1183.92 203.438 1182.77 206.29 1179.56 206.29C1176.6 206.29 1175.6 204.987 1176.46 202.267C1177.2 199.933 1178.84 199.724 1181.45 201.628Z" fill="white"/>
</svg>
